<svg width="32" height="32" viewBox="0 0 32 32" fill="none" xmlns="http://www.w3.org/2000/svg">
<rect width="32" height="32" rx="2" fill="black"/>
<path d="M16 28C14.34 28 12.78 27.685 11.32 27.055C9.86 26.425 8.59 25.57 7.51 24.49C6.43 23.41 5.575 22.14 4.945 20.68C4.315 19.22 4 17.66 4 16C4 14.34 4.315 12.78 4.945 11.32C5.575 9.86 6.43 8.59 7.51 7.51C8.59 6.43 9.86 5.575 11.32 4.945C12.78 4.315 14.34 4 16 4C17.66 4 19.22 4.315 20.68 4.945C22.14 5.575 23.41 6.43 24.49 7.51C25.57 8.59 26.425 9.86 27.055 11.32C27.685 12.78 28 14.34 28 16C28 17.66 27.685 19.22 27.055 20.68C26.425 22.14 25.57 23.41 24.49 24.49C23.41 25.57 22.14 26.425 20.68 27.055C19.22 27.685 17.66 28 16 28ZM16 25.6C18.68 25.6 20.95 24.67 22.81 22.81C24.67 20.95 25.6 18.68 25.6 16C25.6 13.32 24.67 11.05 22.81 9.19C20.95 7.33 18.68 6.4 16 6.4C13.32 6.4 11.05 7.33 9.19 9.19C7.33 11.05 6.4 13.32 6.4 16C6.4 18.68 7.33 20.95 9.19 22.81C11.05 24.67 13.32 25.6 16 25.6ZM16 23.2C14 23.2 12.3 22.5 10.9 21.1C9.5 19.7 8.8 18 8.8 16C8.8 14 9.5 12.3 10.9 10.9C12.3 9.5 14 8.8 16 8.8C18 8.8 19.7 9.5 21.1 10.9C22.5 12.3 23.2 14 23.2 16C23.2 18 22.5 19.7 21.1 21.1C19.7 22.5 18 23.2 16 23.2ZM16 20.8C17.32 20.8 18.45 20.33 19.39 19.39C20.33 18.45 20.8 17.32 20.8 16C20.8 14.68 20.33 13.55 19.39 12.61C18.45 11.67 17.32 11.2 16 11.2C14.68 11.2 13.55 11.67 12.61 12.61C11.67 13.55 11.2 14.68 11.2 16C11.2 17.32 11.67 18.45 12.61 19.39C13.55 20.33 14.68 20.8 16 20.8ZM16 18.4C15.34 18.4 14.775 18.165 14.305 17.695C13.835 17.225 13.6 16.66 13.6 16C13.6 15.34 13.835 14.775 14.305 14.305C14.775 13.835 15.34 13.6 16 13.6C16.66 13.6 17.225 13.835 17.695 14.305C18.165 14.775 18.4 15.34 18.4 16C18.4 16.66 18.165 17.225 17.695 17.695C17.225 18.165 16.66 18.4 16 18.4Z" fill="white"/>
</svg>
